<svg width="34" height="35" viewBox="0 0 34 35" fill="none" xmlns="http://www.w3.org/2000/svg">
<g clip-path="url(#clip0_211_2046)">
<path fill-rule="evenodd" clip-rule="evenodd" d="M9.97907 3.68005C13.8233 3.68005 16.9398 6.79646 16.9398 10.6407V3.68005H23.9005C27.7447 3.68005 30.8612 6.79646 30.8612 10.6407C30.8612 14.485 27.7447 17.6014 23.9005 17.6014C27.7447 17.6014 30.8612 20.7179 30.8612 24.5621C30.8612 26.471 30.0928 28.2004 28.8485 29.4579L28.8224 29.4841L28.7993 29.5071C27.5415 30.7532 25.8109 31.5228 23.9005 31.5228C22.003 31.5228 20.2829 30.7636 19.0273 29.5324C19.011 29.5164 18.9947 29.5003 18.9785 29.4841C18.9632 29.4689 18.9481 29.4536 18.933 29.4382C17.7001 28.1823 16.9398 26.461 16.9398 24.5621C16.9398 28.4064 13.8233 31.5228 9.97907 31.5228C6.13478 31.5228 3.01837 28.4064 3.01837 24.5621V17.6014H9.97907C6.13478 17.6014 3.01837 14.485 3.01837 10.6407C3.01837 6.79646 6.13478 3.68005 9.97907 3.68005ZM15.5476 10.6407C15.5476 13.7162 13.0545 16.2093 9.97907 16.2093V5.07219C13.0545 5.07219 15.5476 7.56532 15.5476 10.6407ZM29.469 24.5621C29.469 21.4867 26.9759 18.9936 23.9005 18.9936C20.825 18.9936 18.3319 21.4867 18.3319 24.5621H29.469ZM4.41051 18.9936V24.5621C4.41051 27.6376 6.90364 30.1307 9.97907 30.1307C13.0545 30.1307 15.5476 27.6376 15.5476 24.5621V18.9936H4.41051ZM18.3319 16.2093V5.07219H23.9005C26.9759 5.07219 29.469 7.56532 29.469 10.6407C29.469 13.7162 26.9759 16.2093 23.9005 16.2093H18.3319Z" fill="#263238"/>
</g>
<defs>
<clipPath id="clip0_211_2046">
<rect width="27.8428" height="27.8428" fill="white" transform="translate(3.01837 3.68005)"/>
</clipPath>
</defs>
</svg>
