<svg width="46" height="40" viewBox="0 0 46 40" fill="none" xmlns="http://www.w3.org/2000/svg">
<path d="M45.9187 27.4136C45.9187 34.3333 40.3092 39.9429 33.3894 39.9429L14.5956 39.9429C12.6734 39.9429 11.1152 38.3847 11.1152 36.4625L11.1152 12.7962C11.1152 8.95187 14.2316 5.83547 18.0759 5.83547L42.4384 5.83547C44.3605 5.83547 45.9187 7.39367 45.9187 9.31581L45.9187 27.4136Z" fill="#E8F5E9"/>
<path d="M17.3728 7.92371C14.887 7.92371 12.8633 9.96589 12.8633 12.4623C12.8633 14.0416 13.6743 15.436 14.8988 16.2488C13.4198 16.7434 12.14 17.6676 11.2013 18.8768C10.6824 18.4776 10.1025 18.1566 9.47735 17.9266C10.4253 17.2228 11.0448 16.0923 11.0448 14.8217C11.0448 12.7045 9.33239 10.9712 7.22795 10.9712C5.12352 10.9712 3.41113 12.7045 3.41113 14.8217C3.41113 16.093 4.03112 17.2241 4.97987 17.9278C2.46805 18.8547 0.674133 21.2815 0.674133 24.1374V26.1436C0.67439 26.2966 0.735566 26.4431 0.844036 26.5508C0.952505 26.6587 1.09928 26.7189 1.25222 26.7184H10.054C10.0753 26.7207 10.0967 26.722 10.118 26.7217H24.6282C24.6495 26.722 24.6711 26.7207 24.6922 26.7184H33.4946C33.811 26.7171 34.0673 26.4603 34.068 26.1436V24.1374C34.068 21.2815 32.2772 18.8547 29.7667 17.9276C30.7155 17.2241 31.3355 16.0928 31.3355 14.8215C31.3355 12.7042 29.6231 10.971 27.5186 10.971C25.4143 10.971 23.7018 12.7042 23.7018 14.8215C23.7018 16.0921 24.3215 17.2227 25.2695 17.9263C24.6431 18.1569 24.0629 18.4789 23.5432 18.8791C22.605 17.6692 21.327 16.7436 19.848 16.2488C21.0723 15.436 21.8836 14.0416 21.8836 12.4623C21.8836 9.96589 19.8588 7.92371 17.373 7.92371H17.3728ZM17.3728 9.07525C19.232 9.07525 20.7308 10.5841 20.7308 12.4623C20.7308 14.3259 19.2554 15.82 17.4168 15.844C17.4021 15.844 17.3877 15.8419 17.3728 15.8419C17.3579 15.8419 17.3438 15.844 17.3289 15.844C15.4903 15.8203 14.0158 14.3259 14.0158 12.4623C14.0158 10.5838 15.5134 9.07525 17.3726 9.07525H17.3728ZM7.22802 12.1227C8.70319 12.1227 9.89329 13.32 9.89329 14.8217C9.89329 16.3133 8.71858 17.5054 7.2573 17.5216C7.24753 17.5216 7.23802 17.5206 7.228 17.5206C7.21823 17.5206 7.20872 17.5216 7.1987 17.5216C5.73742 17.5054 4.5627 16.313 4.5627 14.8217C4.5627 13.3201 5.75281 12.1227 7.22798 12.1227H7.22802ZM27.5183 12.1227C28.9935 12.1227 30.1836 13.32 30.1836 14.8217C30.1836 16.3133 29.0089 17.5054 27.5476 17.5216C27.5378 17.5216 27.5283 17.5206 27.5183 17.5206C27.5085 17.5206 27.499 17.5216 27.489 17.5216C26.0277 17.5054 24.853 16.313 24.853 14.8217C24.853 13.3201 26.0431 12.1227 27.5182 12.1227H27.5183ZM17.3287 16.9955C17.3434 16.9957 17.3578 16.9975 17.3727 16.9975C17.3873 16.9975 17.4017 16.9955 17.4166 16.9955C21.1039 17.0191 24.0548 19.9954 24.0548 23.7212L24.0546 25.5698H10.6914V23.7212C10.6914 19.9951 13.6414 17.0192 17.3282 16.9955H17.3287ZM7.18393 18.6745C7.19858 18.6747 7.21298 18.6765 7.22789 18.6765C7.24279 18.6765 7.25693 18.6745 7.27184 18.6745C8.519 18.6845 9.65719 19.1145 10.5635 19.834C9.91497 20.9815 9.53993 22.3059 9.53993 23.7215V25.5657H1.82522V24.1374C1.82522 21.1094 4.20596 18.6981 7.1838 18.6742L7.18393 18.6745ZM27.4742 18.6745C27.4891 18.6747 27.5032 18.6765 27.5182 18.6765C27.5331 18.6765 27.5472 18.6745 27.5621 18.6745C30.5399 18.6981 32.9207 21.1097 32.9207 24.1376V25.5657H25.202L25.2018 23.7215C25.2018 22.3067 24.8278 20.9832 24.1805 19.836C25.0871 19.1156 26.2261 18.6845 27.4743 18.6745H27.4742Z" fill="#103E13"/>
</svg>
