<svg width="46" height="40" viewBox="0 0 46 40" fill="none" xmlns="http://www.w3.org/2000/svg">
<path d="M45.6659 27.4136C45.6659 34.3333 40.0563 39.9429 33.1366 39.9429L14.3428 39.9429C12.4206 39.9429 10.8624 38.3847 10.8624 36.4625L10.8624 12.7962C10.8624 8.95187 13.9788 5.83547 17.8231 5.83547L42.1855 5.83547C44.1077 5.83547 45.6659 7.39367 45.6659 9.31581L45.6659 27.4136Z" fill="#E8F5E9"/>
<path d="M20.1283 17.4213C19.9607 17.4213 19.805 17.3752 19.6668 17.3011V17.3031C19.6668 17.5668 19.5643 17.8144 19.3783 17.9999C19.1924 18.1858 18.9449 18.2883 18.6815 18.2883C18.5114 18.2883 18.3539 18.2411 18.2141 18.165C18.2 18.4063 18.1036 18.6317 17.9316 18.8039C17.7456 18.9899 17.4981 19.0924 17.2346 19.0924C16.7109 19.0924 16.2857 18.6808 16.255 18.1649C16.093 18.2524 15.9098 18.2983 15.7209 18.2862C15.2058 18.2524 14.8024 17.8074 14.8024 17.2727V12.8411L14.2978 13.7153C14.1056 14.0497 13.7458 14.2573 13.3584 14.2573C13.1697 14.2573 12.9832 14.2078 12.8181 14.1132C12.6124 13.9939 12.4653 13.8026 12.4041 13.5736C12.3426 13.3445 12.3745 13.1049 12.4934 12.8996C12.4935 12.8996 14.1444 10.0407 14.2451 9.86508C14.2571 9.83868 14.2912 9.7621 14.3203 9.69683C14.348 9.63451 14.3717 9.57055 14.3945 9.50627C14.8924 8.10071 16.1252 7.2276 17.6119 7.2276C19.5426 7.2276 21.1133 8.93082 21.1133 11.0244L21.1135 16.4359C21.1135 16.6992 21.0111 16.9467 20.8253 17.1329C20.6394 17.3188 20.3919 17.4213 20.1282 17.4213L20.1283 17.4213ZM17.6119 7.75115C16.3344 7.75115 15.3162 8.47274 14.888 9.68136C14.8606 9.7581 14.8321 9.83485 14.7988 9.90963C14.7022 10.1263 14.7022 10.1263 14.675 10.1574L14.6714 10.1543C14.5366 10.4087 14.1361 11.1022 12.9467 13.1616C12.8978 13.2461 12.8848 13.3441 12.9098 13.4379C12.935 13.5317 12.9955 13.6108 13.0793 13.6592C13.3394 13.8086 13.6956 13.7121 13.8439 13.4538L14.8375 11.7335C14.8969 11.6311 15.0169 11.5807 15.132 11.6119C15.2465 11.6425 15.326 11.7463 15.326 11.8647V17.2729C15.326 17.528 15.5186 17.7483 15.7552 17.7639C15.8917 17.7711 16.0189 17.7253 16.1145 17.6299C16.2014 17.543 16.2493 17.4272 16.2493 17.3034V13.7664C16.2493 13.6217 16.3666 13.5045 16.5112 13.5045C16.6559 13.5045 16.7731 13.6216 16.7731 13.7664L16.773 18.1073C16.773 18.3618 16.9801 18.569 17.2346 18.569C17.3582 18.569 17.4744 18.5211 17.5614 18.4342C17.6484 18.3471 17.6962 18.231 17.6962 18.1073V13.7664C17.6962 13.6217 17.8133 13.5045 17.9581 13.5045C18.1028 13.5045 18.22 13.6216 18.22 13.7664L18.2199 17.2627V17.3033C18.2199 17.5577 18.427 17.7648 18.6817 17.7648C18.8052 17.7648 18.9209 17.7168 19.0085 17.6295C19.0954 17.5428 19.1433 17.427 19.1433 17.3032V13.7662C19.1433 13.6215 19.2604 13.5043 19.4052 13.5043C19.5498 13.5043 19.6671 13.6214 19.6671 13.7662L19.6668 16.436C19.6668 16.6907 19.8739 16.8978 20.1282 16.8978C20.2521 16.8978 20.3678 16.8497 20.4548 16.763C20.542 16.6758 20.5897 16.5596 20.5897 16.436L20.5899 11.0245C20.5899 9.21978 19.254 7.7512 17.6119 7.7512L17.6119 7.75115Z" fill="#103E13"/>
<path d="M9.83857 21.1825L13.6389 18.9026C14.0971 18.6274 14.6867 18.7444 14.9805 19.169C15.0878 19.3236 15.1426 19.5038 15.1511 19.6873C15.2928 19.6134 15.4469 19.5732 15.6039 19.5732C15.6842 19.5732 15.7649 19.5832 15.8446 19.6031C16.0999 19.6668 16.3151 19.8264 16.4504 20.0521C16.5859 20.278 16.6254 20.5429 16.5616 20.7979C16.5027 21.0339 16.3592 21.2325 16.1596 21.3688C16.2992 21.4511 16.4196 21.5634 16.5052 21.7064C16.6406 21.9324 16.6802 22.1971 16.6165 22.4525C16.5527 22.7075 16.3932 22.9226 16.1672 23.0583L16.1659 23.0591C16.303 23.1412 16.4212 23.2524 16.5058 23.3933C16.6415 23.6193 16.681 23.8841 16.6172 24.1394C16.5532 24.3946 16.3937 24.6098 16.168 24.7452L11.5277 27.529C10.6617 28.0484 9.66051 28.2277 8.70903 28.0333C7.74903 27.8372 6.95397 27.2854 6.47055 26.4795C5.70551 25.2044 5.82016 23.698 6.76918 22.5482C6.81264 22.4958 6.85544 22.4423 6.8943 22.3869C6.93547 22.3283 6.98352 22.2594 6.99991 22.2358C7.09814 22.0604 8.70103 19.1724 8.70086 19.1728C8.86272 18.8807 9.16611 18.7154 9.479 18.7156C9.62495 18.7156 9.77304 18.7515 9.90965 18.8272C10.0746 18.9194 10.2132 19.0537 10.3101 19.2156C10.5094 19.5477 10.5164 19.9632 10.3288 20.2995L9.83857 21.1825ZM9.86137 19.4848C9.81053 19.4 9.74067 19.3324 9.65523 19.2846C9.47861 19.1868 9.25623 19.2505 9.159 19.4264C8.01205 21.4927 7.62107 22.1969 7.47019 22.4475L7.47363 22.4483C7.461 22.4903 7.461 22.4903 7.32292 22.6876C7.27602 22.7543 7.22502 22.8184 7.17303 22.8816C6.35699 23.8703 6.26223 25.1145 6.91934 26.2101C7.32637 26.8887 7.99907 27.354 8.81361 27.5203C9.637 27.6877 10.5049 27.5319 11.2581 27.0799L15.8988 24.296C16.0047 24.2326 16.0795 24.1317 16.1094 24.0122C16.1392 23.8928 16.1207 23.7686 16.057 23.6627C15.9262 23.4446 15.642 23.3729 15.4239 23.5043L13.1346 24.8777C13.0106 24.9522 12.8495 24.9122 12.7752 24.788C12.7008 24.664 12.741 24.5032 12.8649 24.4287L15.1544 23.0553L15.898 22.6092C16.0039 22.5456 16.0789 22.4447 16.1087 22.3255C16.1386 22.206 16.12 22.0816 16.0564 21.9759C15.9254 21.7576 15.6412 21.6866 15.4232 21.8175L12.3902 23.637C12.2659 23.7116 12.1053 23.6712 12.0309 23.5473C11.9564 23.4233 11.9968 23.2624 12.1206 23.188L15.8431 20.9549C15.949 20.8913 16.0238 20.7906 16.0536 20.671C16.0835 20.5516 16.0649 20.4275 16.0015 20.3215C15.938 20.2158 15.8371 20.141 15.7176 20.1111C15.5974 20.0813 15.4737 20.0998 15.3681 20.1631L14.679 20.5766C14.6789 20.5766 14.6789 20.5767 14.6787 20.5767H14.6785L11.6457 22.3962C11.5214 22.471 11.3607 22.4307 11.2864 22.3065C11.2119 22.1825 11.2523 22.0217 11.3761 21.9472L14.4091 20.1277C14.515 20.0641 14.59 19.9632 14.6198 19.844C14.6526 19.7131 14.6277 19.5793 14.55 19.4671C14.4152 19.2722 14.1269 19.2203 13.9083 19.3517L9.27094 22.1337C9.16942 22.1944 9.03938 22.1796 8.95427 22.0974C8.86899 22.0151 8.8498 21.8857 8.9072 21.7822L9.87149 20.0449C9.96824 19.8712 9.96447 19.6567 9.86132 19.4849L9.86137 19.4848Z" fill="#103E13"/>
<path d="M27.9983 26.4794C27.515 27.2854 26.7202 27.8371 25.76 28.0332C24.8084 28.2272 23.8075 28.0483 22.9413 27.5289L18.3006 24.745C18.0748 24.6096 17.9151 24.3944 17.8511 24.1389C17.7876 23.8839 17.8273 23.619 17.9626 23.3934C18.0471 23.2523 18.1655 23.1411 18.3027 23.059L18.3014 23.0582C18.0756 22.9227 17.9159 22.7075 17.8523 22.4524C17.7883 22.1972 17.828 21.9322 17.9634 21.7062C18.0507 21.5611 18.1702 21.4476 18.3067 21.3671C18.1086 21.2308 17.9659 21.0329 17.9072 20.798C17.8432 20.5427 17.8829 20.2778 18.0184 20.0522C18.1537 19.8263 18.369 19.6668 18.6242 19.603C18.7039 19.583 18.7847 19.5731 18.8648 19.5731C19.0219 19.5733 19.176 19.6132 19.3177 19.6873C19.3264 19.5038 19.381 19.3235 19.4883 19.1689C19.7823 18.7447 20.3714 18.6272 20.8302 18.9026L24.6304 21.1821L24.1406 20.2998C23.9527 19.9629 23.9595 19.5474 24.1588 19.2151C24.2559 19.0534 24.3946 18.9191 24.5604 18.8261C24.6967 18.7507 24.8443 18.7149 24.9899 18.7149C25.3026 18.7151 25.6063 18.8801 25.768 19.1722C26.3315 20.1875 27.3948 22.1022 27.4696 22.2359C27.4855 22.259 27.5336 22.3279 27.5747 22.3864C27.6139 22.442 27.6562 22.4952 27.7 22.548C28.6489 23.6982 28.7633 25.2045 27.9983 26.4794L27.9983 26.4794ZM27.296 22.8817C27.2438 22.8186 27.1927 22.7541 27.1461 22.6877C27.0044 22.4867 27.0008 22.4814 26.9901 22.4288C26.8245 22.1547 26.4204 21.4273 25.3097 19.4262C25.2123 19.2506 24.9909 19.1865 24.8146 19.2839C24.7279 19.3324 24.6582 19.4001 24.6073 19.4849C24.5044 19.6566 24.5004 19.8711 24.5977 20.0453L25.5616 21.7821C25.6192 21.8858 25.6 22.015 25.5149 22.0973C25.4299 22.1798 25.3 22.1943 25.198 22.1336L20.5607 19.3516C20.3421 19.2206 20.054 19.2719 19.9188 19.467C19.8411 19.5792 19.8163 19.713 19.8488 19.8437C19.8787 19.9631 19.9536 20.0638 20.0597 20.1274C20.06 20.1276 20.0602 20.1279 20.0605 20.1281L23.0926 21.9471C23.2166 22.0216 23.2568 22.1823 23.1823 22.3064C23.1078 22.4302 22.9473 22.4707 22.823 22.3961L19.1005 20.163C18.9949 20.0997 18.8706 20.0811 18.7512 20.1111C18.6315 20.1409 18.5308 20.2157 18.4673 20.3218C18.4037 20.4276 18.3854 20.5517 18.4149 20.6711C18.4447 20.7905 18.5197 20.8913 18.6256 20.955L19.35 21.3894L22.3479 23.1881C22.4719 23.2625 22.5121 23.4232 22.4376 23.5474C22.3632 23.6712 22.2026 23.7115 22.0783 23.6371L19.0456 21.8176C18.8275 21.6864 18.5434 21.7576 18.4123 21.976C18.3486 22.0819 18.3303 22.2061 18.3598 22.3255C18.3896 22.4449 18.4646 22.5455 18.5707 22.6093L19.3142 23.0554L21.6034 24.4288C21.7273 24.5033 21.7675 24.664 21.6931 24.7881C21.6186 24.912 21.4581 24.9526 21.3338 24.8778L19.0446 23.5044C18.939 23.4411 18.8152 23.4224 18.6951 23.4524C18.5757 23.4823 18.4747 23.557 18.4113 23.6628C18.3478 23.7688 18.3293 23.8931 18.3588 24.0123C18.3886 24.1317 18.4636 24.2324 18.5697 24.2962L23.2104 27.0801C23.9635 27.5319 24.8319 27.6883 25.6549 27.5204C26.4692 27.3541 27.142 26.8888 27.549 26.2102C28.2068 25.1144 28.1121 23.8701 27.2963 22.8817L27.296 22.8817Z" fill="#103E13"/>
</svg>
