<svg width="46" height="40" viewBox="0 0 46 40" fill="none" xmlns="http://www.w3.org/2000/svg">
<path d="M45.7923 27.4136C45.7923 34.3333 40.1828 39.9429 33.263 39.9429L14.4692 39.9429C12.547 39.9429 10.9888 38.3847 10.9888 36.4625L10.9888 12.7962C10.9888 8.95187 14.1052 5.83547 17.9495 5.83547L42.312 5.83547C44.2341 5.83547 45.7923 7.39367 45.7923 9.31581L45.7923 27.4136Z" fill="#E8F5E9"/>
<path d="M19.2835 14.1959C19.0663 14.1959 18.8897 14.0196 18.8897 13.8022V13.133C18.8897 12.9158 19.066 12.7393 19.2835 12.7393C19.5006 12.7393 19.6772 12.9155 19.6772 13.133V13.8022C19.6772 14.0196 19.5007 14.1959 19.2835 14.1959Z" fill="#103E13"/>
<path d="M17.628 14.1959C17.4108 14.1959 17.2343 14.0196 17.2343 13.8022V13.133C17.2343 12.9158 17.4106 12.7393 17.628 12.7393C17.8452 12.7393 18.0218 12.9155 18.0218 13.133V13.8022C18.0215 14.0196 17.8455 14.1959 17.628 14.1959Z" fill="#103E13"/>
<path d="M15.9727 14.1959C15.7555 14.1959 15.579 14.0196 15.579 13.8022V13.133C15.579 12.9158 15.7553 12.7393 15.9727 12.7393C16.1899 12.7393 16.3665 12.9155 16.3665 13.133V13.8022C16.3665 14.0196 16.1902 14.1959 15.9727 14.1959Z" fill="#103E13"/>
<path d="M19.2835 16.9323C19.0663 16.9323 18.8897 16.756 18.8897 16.5386V15.8697C18.8897 15.6525 19.066 15.476 19.2835 15.476C19.5006 15.476 19.6772 15.6522 19.6772 15.8697V16.5386C19.6772 16.756 19.5007 16.9323 19.2835 16.9323Z" fill="#103E13"/>
<path d="M17.628 16.9323C17.4108 16.9323 17.2343 16.756 17.2343 16.5386V15.8697C17.2343 15.6525 17.4106 15.476 17.628 15.476C17.8452 15.476 18.0218 15.6522 18.0218 15.8697V16.5386C18.0215 16.756 17.8455 16.9323 17.628 16.9323Z" fill="#103E13"/>
<path d="M15.9727 16.9323C15.7555 16.9323 15.579 16.756 15.579 16.5386V15.8697C15.579 15.6525 15.7553 15.476 15.9727 15.476C16.1899 15.476 16.3665 15.6522 16.3665 15.8697V16.5386C16.3665 16.756 16.1902 16.9323 15.9727 16.9323Z" fill="#103E13"/>
<path d="M19.2835 19.6687C19.0663 19.6687 18.8897 19.4924 18.8897 19.2749V18.6058C18.8897 18.3886 19.066 18.212 19.2835 18.212C19.5006 18.212 19.6772 18.3883 19.6772 18.6058V19.2749C19.6772 19.4924 19.5007 19.6687 19.2835 19.6687Z" fill="#103E13"/>
<path d="M17.628 19.6687C17.4108 19.6687 17.2343 19.4924 17.2343 19.2749V18.6058C17.2343 18.3886 17.4106 18.212 17.628 18.212C17.8452 18.212 18.0218 18.3883 18.0218 18.6058V19.2749C18.0215 19.4924 17.8455 19.6687 17.628 19.6687Z" fill="#103E13"/>
<path d="M15.9727 19.6687C15.7555 19.6687 15.579 19.4924 15.579 19.2749V18.6058C15.579 18.3886 15.7553 18.212 15.9727 18.212C16.1899 18.212 16.3665 18.3883 16.3665 18.6058V19.2749C16.3665 19.4924 16.1902 19.6687 15.9727 19.6687Z" fill="#103E13"/>
<path d="M19.2835 22.4045C19.0663 22.4045 18.8897 22.2282 18.8897 22.0108V21.3416C18.8897 21.1244 19.066 20.9479 19.2835 20.9479C19.5006 20.9479 19.6772 21.1242 19.6772 21.3416V22.0108C19.6772 22.2282 19.5007 22.4045 19.2835 22.4045Z" fill="#103E13"/>
<path d="M17.628 22.4045C17.4108 22.4045 17.2343 22.2282 17.2343 22.0108V21.3416C17.2343 21.1244 17.4106 20.9479 17.628 20.9479C17.8452 20.9479 18.0218 21.1242 18.0218 21.3416V22.0108C18.0215 22.2282 17.8455 22.4045 17.628 22.4045Z" fill="#103E13"/>
<path d="M15.9727 22.4045C15.7555 22.4045 15.579 22.2282 15.579 22.0108V21.3416C15.579 21.1244 15.7553 20.9479 15.9727 20.9479C16.1899 20.9479 16.3665 21.1242 16.3665 21.3416V22.0108C16.3665 22.2282 16.1902 22.4045 15.9727 22.4045Z" fill="#103E13"/>
<path d="M19.2835 25.1409C19.0663 25.1409 18.8897 24.9647 18.8897 24.7472V24.0783C18.8897 23.8611 19.066 23.6846 19.2835 23.6846C19.5006 23.6846 19.6772 23.8609 19.6772 24.0783V24.7472C19.6772 24.9644 19.5007 25.1409 19.2835 25.1409Z" fill="#103E13"/>
<path d="M17.628 25.1409C17.4108 25.1409 17.2343 24.9647 17.2343 24.7472V24.0783C17.2343 23.8611 17.4106 23.6846 17.628 23.6846C17.8452 23.6846 18.0218 23.8609 18.0218 24.0783V24.7472C18.0215 24.9644 17.8455 25.1409 17.628 25.1409Z" fill="#103E13"/>
<path d="M15.9727 25.1409C15.7555 25.1409 15.579 24.9647 15.579 24.7472L15.5793 24.0783C15.5793 23.8611 15.7555 23.6846 15.973 23.6846C16.1902 23.6846 16.3668 23.8609 16.3668 24.0783V24.7472C16.3665 24.9644 16.1902 25.1409 15.9727 25.1409Z" fill="#103E13"/>
<path d="M4.72454 27.8641C4.72454 28.0813 4.90082 28.2579 5.11829 28.2579H29.0963C29.3135 28.2579 29.4901 28.0816 29.4901 27.8641C29.4901 27.6469 29.3138 27.4704 29.0963 27.4704H28.3684V16.1653C28.3684 15.9481 28.1922 15.7716 27.9747 15.7716L21.546 15.7718V7.62147C21.546 7.48364 21.4741 7.35623 21.3565 7.28484C21.2393 7.21317 21.0927 7.20878 20.9708 7.2722L13.6618 11.0776C13.5314 11.1454 13.4501 11.28 13.4501 11.4269V18.5461H6.3766C6.15941 18.5461 5.98285 18.7223 5.98285 18.9398V27.4704H5.11741C4.90022 27.4702 4.72421 27.6464 4.72421 27.8639L4.72454 27.8641ZM21.5461 21.7353H27.5813V27.4707L21.5461 27.4704V21.7353ZM21.5461 18.9991H27.5813V20.9481L21.5461 20.9478V18.9991ZM21.5461 16.5589H27.5813V18.2122H21.5461V16.5589ZM14.2372 11.666L20.7584 8.2705V27.4701H14.2372V11.666ZM8.71678 24.3256C8.71678 23.5084 9.36423 22.8434 10.1602 22.8434C10.9562 22.8434 11.604 23.5081 11.604 24.3256V27.4706H8.71678V24.3256ZM6.77032 19.3334H13.45V27.4704H12.3914V24.3254C12.3914 23.0741 11.3909 22.056 10.1602 22.056C8.93012 22.056 7.92958 23.0739 7.92958 24.3254V27.4704H6.77032V19.3334Z" fill="#103E13"/>
</svg>
