<svg width="24" height="23" viewBox="0 0 24 23" fill="none" xmlns="http://www.w3.org/2000/svg">
<path opacity="0.1" fill-rule="evenodd" clip-rule="evenodd" d="M0.85144 11.7743C0.85144 5.62346 5.8377 0.637207 11.9886 0.637207C18.1394 0.637207 23.1257 5.62346 23.1257 11.7743C23.1257 17.9252 18.1394 22.9114 11.9886 22.9114C5.8377 22.9114 0.85144 17.9252 0.85144 11.7743Z" fill="white"/>
<path fill-rule="evenodd" clip-rule="evenodd" d="M11.9891 5.83453C10.376 5.83453 10.1735 5.84159 9.53992 5.87042C8.90757 5.89938 8.47594 5.99949 8.09826 6.14638C7.7076 6.29809 7.3762 6.50103 7.04604 6.83132C6.71564 7.16147 6.51269 7.49287 6.36049 7.88341C6.21323 8.26121 6.11299 8.69296 6.08453 9.32506C6.05619 9.95865 6.04877 10.1612 6.04877 11.7744C6.04877 13.3876 6.05594 13.5894 6.08465 14.223C6.11373 14.8553 6.21385 15.2869 6.36061 15.6646C6.51245 16.0553 6.71539 16.3867 7.04567 16.7168C7.37571 17.0472 7.7071 17.2507 8.09752 17.4024C8.47545 17.5493 8.9072 17.6494 9.53942 17.6784C10.173 17.7072 10.3753 17.7142 11.9884 17.7142C13.6017 17.7142 13.8035 17.7072 14.4371 17.6784C15.0694 17.6494 15.5016 17.5493 15.8795 17.4024C16.27 17.2507 16.6009 17.0472 16.931 16.7168C17.2614 16.3867 17.4643 16.0553 17.6165 15.6647C17.7625 15.2869 17.8628 14.8552 17.8925 14.2231C17.9209 13.5895 17.9284 13.3876 17.9284 11.7744C17.9284 10.1612 17.9209 9.95877 17.8925 9.32519C17.8628 8.69284 17.7625 8.26121 17.6165 7.88354C17.4643 7.49287 17.2614 7.16147 16.931 6.83132C16.6005 6.50091 16.2701 6.29797 15.8791 6.14638C15.5004 5.99949 15.0686 5.89938 14.4362 5.87042C13.8026 5.84159 13.6009 5.83453 11.9873 5.83453H11.9891ZM11.4562 6.90493C11.6144 6.90468 11.7908 6.90493 11.9891 6.90493C13.575 6.90493 13.763 6.91062 14.3893 6.93908C14.9684 6.96556 15.2827 7.06233 15.4921 7.14364C15.7693 7.2513 15.9669 7.37999 16.1747 7.58789C16.3826 7.79578 16.5113 7.99378 16.6192 8.27097C16.7005 8.4801 16.7974 8.79442 16.8238 9.37356C16.8522 9.99972 16.8584 10.1878 16.8584 11.773C16.8584 13.3582 16.8522 13.5463 16.8238 14.1725C16.7973 14.7516 16.7005 15.0659 16.6192 15.2751C16.5115 15.5522 16.3826 15.7496 16.1747 15.9574C15.9668 16.1653 15.7694 16.294 15.4921 16.4016C15.283 16.4833 14.9684 16.5798 14.3893 16.6063C13.7631 16.6348 13.575 16.641 11.9891 16.641C10.403 16.641 10.2151 16.6348 9.5889 16.6063C9.00976 16.5796 8.69544 16.4828 8.48594 16.4015C8.20875 16.2939 8.01075 16.1652 7.80286 15.9573C7.59496 15.7494 7.46626 15.5519 7.35836 15.2746C7.27705 15.0654 7.18016 14.7511 7.1538 14.172C7.12534 13.5458 7.11965 13.3577 7.11965 11.7715C7.11965 10.1853 7.12534 9.99823 7.1538 9.37207C7.18028 8.79294 7.27705 8.47862 7.35836 8.26924C7.46602 7.99205 7.59496 7.79405 7.80286 7.58616C8.01075 7.37826 8.20875 7.24956 8.48594 7.14166C8.69532 7.05998 9.00976 6.96346 9.5889 6.93685C10.1368 6.91211 10.3492 6.90468 11.4562 6.90344V6.90493ZM15.1597 7.89119C14.7662 7.89119 14.447 8.21009 14.447 8.60373C14.447 8.99724 14.7662 9.31651 15.1597 9.31651C15.5533 9.31651 15.8725 8.99724 15.8725 8.60373C15.8725 8.21021 15.5533 7.89119 15.1597 7.89119ZM11.9891 8.72401C10.3046 8.72401 8.93876 10.0898 8.93876 11.7744C8.93876 13.4589 10.3046 14.8241 11.9891 14.8241C13.6737 14.8241 15.039 13.4589 15.039 11.7744C15.039 10.0898 13.6737 8.72401 11.9891 8.72401ZM11.9891 9.79442C13.0825 9.79442 13.9691 10.6808 13.9691 11.7744C13.9691 12.8678 13.0825 13.7543 11.9891 13.7543C10.8956 13.7543 10.0092 12.8678 10.0092 11.7744C10.0092 10.6808 10.8956 9.79442 11.9891 9.79442Z" fill="white"/>
</svg>
